<svg xmlns="http://www.w3.org/2000/svg" version="1.1" xmlns:xlink="http://www.w3.org/1999/xlink" xmlns:svgjs="http://svgjs.dev/svgjs" width="1440" height="560" preserveAspectRatio="none" viewBox="0 0 1440 560">
    <g mask="url(&quot;#SvgjsMask1000&quot;)" fill="none">
        <rect width="1440" height="560" x="0" y="0" fill="#FFFAEB"></rect>
        <path d="M134.66 40.2L199.62 77.7L199.62 152.7L134.66 190.2L69.71 152.7L69.71 77.7zM134.66 490.2L199.62 527.7L199.62 602.7L134.66 640.2L69.71 602.7L69.71 527.7zM199.62 -72.3L264.57 -34.8L264.57 40.2L199.62 77.7L134.66 40.2L134.66 -34.8zM264.57 40.2L329.52 77.7L329.52 152.7L264.57 190.2L199.62 152.7L199.62 77.7zM329.52 -72.3L394.48 -34.8L394.48 40.2L329.52 77.7L264.57 40.2L264.57 -34.8zM394.48 265.2L459.43 302.7L459.43 377.7L394.48 415.2L329.52 377.7L329.52 302.7zM524.39 265.2L589.34 302.7L589.34 377.7L524.39 415.2L459.43 377.7L459.43 302.7zM589.34 -72.3L654.29 -34.8L654.29 40.2L589.34 77.7L524.39 40.2L524.39 -34.8zM654.29 40.2L719.25 77.7L719.25 152.7L654.29 190.2L589.34 152.7L589.34 77.7zM654.29 490.2L719.25 527.7L719.25 602.7L654.29 640.2L589.34 602.7L589.34 527.7zM719.25 -72.3L784.2 -34.8L784.2 40.2L719.25 77.7L654.29 40.2L654.29 -34.8zM784.2 265.2L849.16 302.7L849.16 377.7L784.2 415.2L719.25 377.7L719.25 302.7zM719.25 377.7L784.2 415.2L784.2 490.2L719.25 527.7L654.29 490.2L654.29 415.2zM849.15 -72.3L914.11 -34.8L914.11 40.2L849.15 77.7L784.2 40.2L784.2 -34.8zM849.15 152.7L914.11 190.2L914.11 265.2L849.15 302.7L784.2 265.2L784.2 190.2zM914.11 490.2L979.06 527.7L979.06 602.7L914.11 640.2L849.15 602.7L849.15 527.7zM979.06 -72.3L1044.02 -34.8L1044.02 40.2L979.06 77.7L914.11 40.2L914.11 -34.8zM1044.02 40.2L1108.97 77.7L1108.97 152.7L1044.02 190.2L979.06 152.7L979.06 77.7zM1044.02 265.2L1108.97 302.7L1108.97 377.7L1044.02 415.2L979.06 377.7L979.06 302.7zM979.06 377.7L1044.02 415.2L1044.02 490.2L979.06 527.7L914.11 490.2L914.11 415.2zM1044.02 490.2L1108.97 527.7L1108.97 602.7L1044.02 640.2L979.06 602.7L979.06 527.7zM1108.97 377.7L1173.92 415.2L1173.92 490.2L1108.97 527.7L1044.02 490.2L1044.02 415.2zM1238.88 -72.3L1303.83 -34.8L1303.83 40.2L1238.88 77.7L1173.92 40.2L1173.92 -34.8zM1303.83 40.2L1368.78 77.7L1368.78 152.7L1303.83 190.2L1238.88 152.7L1238.88 77.7zM1238.88 152.7L1303.83 190.2L1303.83 265.2L1238.88 302.7L1173.92 265.2L1173.92 190.2zM1238.88 377.7L1303.83 415.2L1303.83 490.2L1238.88 527.7L1173.92 490.2L1173.92 415.2zM1303.83 490.2L1368.78 527.7L1368.78 602.7L1303.83 640.2L1238.88 602.7L1238.88 527.7zM1368.79 -72.3L1433.74 -34.8L1433.74 40.2L1368.79 77.7L1303.83 40.2L1303.83 -34.8zM1368.79 152.7L1433.74 190.2L1433.74 265.2L1368.79 302.7L1303.83 265.2L1303.83 190.2zM1368.79 377.7L1433.74 415.2L1433.74 490.2L1368.79 527.7L1303.83 490.2L1303.83 415.2zM1433.74 490.2L1498.69 527.7L1498.69 602.7L1433.74 640.2L1368.79 602.7L1368.79 527.7zM1498.69 -72.3L1563.65 -34.8L1563.65 40.2L1498.69 77.7L1433.74 40.2L1433.74 -34.8zM1563.65 40.2L1628.6 77.7L1628.6 152.7L1563.65 190.2L1498.69 152.7L1498.69 77.7zM1563.65 265.2L1628.6 302.7L1628.6 377.7L1563.65 415.2L1498.69 377.7L1498.69 302.7z" stroke="#FFE866" stroke-width="2"></path>
        <path d="M127.16 40.2 a7.5 7.5 0 1 0 15 0 a7.5 7.5 0 1 0 -15 0zM192.12 77.7 a7.5 7.5 0 1 0 15 0 a7.5 7.5 0 1 0 -15 0zM192.12 152.7 a7.5 7.5 0 1 0 15 0 a7.5 7.5 0 1 0 -15 0zM127.16 190.2 a7.5 7.5 0 1 0 15 0 a7.5 7.5 0 1 0 -15 0zM62.21 152.7 a7.5 7.5 0 1 0 15 0 a7.5 7.5 0 1 0 -15 0zM62.21 77.7 a7.5 7.5 0 1 0 15 0 a7.5 7.5 0 1 0 -15 0zM127.16 490.2 a7.5 7.5 0 1 0 15 0 a7.5 7.5 0 1 0 -15 0zM192.12 527.7 a7.5 7.5 0 1 0 15 0 a7.5 7.5 0 1 0 -15 0zM192.12 602.7 a7.5 7.5 0 1 0 15 0 a7.5 7.5 0 1 0 -15 0zM127.16 640.2 a7.5 7.5 0 1 0 15 0 a7.5 7.5 0 1 0 -15 0zM62.21 602.7 a7.5 7.5 0 1 0 15 0 a7.5 7.5 0 1 0 -15 0zM62.21 527.7 a7.5 7.5 0 1 0 15 0 a7.5 7.5 0 1 0 -15 0zM192.12 -72.3 a7.5 7.5 0 1 0 15 0 a7.5 7.5 0 1 0 -15 0zM257.07 -34.8 a7.5 7.5 0 1 0 15 0 a7.5 7.5 0 1 0 -15 0zM257.07 40.2 a7.5 7.5 0 1 0 15 0 a7.5 7.5 0 1 0 -15 0zM127.16 -34.8 a7.5 7.5 0 1 0 15 0 a7.5 7.5 0 1 0 -15 0zM322.02 77.7 a7.5 7.5 0 1 0 15 0 a7.5 7.5 0 1 0 -15 0zM322.02 152.7 a7.5 7.5 0 1 0 15 0 a7.5 7.5 0 1 0 -15 0zM257.07 190.2 a7.5 7.5 0 1 0 15 0 a7.5 7.5 0 1 0 -15 0zM322.02 -72.3 a7.5 7.5 0 1 0 15 0 a7.5 7.5 0 1 0 -15 0zM386.98 -34.8 a7.5 7.5 0 1 0 15 0 a7.5 7.5 0 1 0 -15 0zM386.98 40.2 a7.5 7.5 0 1 0 15 0 a7.5 7.5 0 1 0 -15 0zM386.98 265.2 a7.5 7.5 0 1 0 15 0 a7.5 7.5 0 1 0 -15 0zM451.93 302.7 a7.5 7.5 0 1 0 15 0 a7.5 7.5 0 1 0 -15 0zM451.93 377.7 a7.5 7.5 0 1 0 15 0 a7.5 7.5 0 1 0 -15 0zM386.98 415.2 a7.5 7.5 0 1 0 15 0 a7.5 7.5 0 1 0 -15 0zM322.02 377.7 a7.5 7.5 0 1 0 15 0 a7.5 7.5 0 1 0 -15 0zM322.02 302.7 a7.5 7.5 0 1 0 15 0 a7.5 7.5 0 1 0 -15 0zM516.89 265.2 a7.5 7.5 0 1 0 15 0 a7.5 7.5 0 1 0 -15 0zM581.84 302.7 a7.5 7.5 0 1 0 15 0 a7.5 7.5 0 1 0 -15 0zM581.84 377.7 a7.5 7.5 0 1 0 15 0 a7.5 7.5 0 1 0 -15 0zM516.89 415.2 a7.5 7.5 0 1 0 15 0 a7.5 7.5 0 1 0 -15 0zM581.84 -72.3 a7.5 7.5 0 1 0 15 0 a7.5 7.5 0 1 0 -15 0zM646.79 -34.8 a7.5 7.5 0 1 0 15 0 a7.5 7.5 0 1 0 -15 0zM646.79 40.2 a7.5 7.5 0 1 0 15 0 a7.5 7.5 0 1 0 -15 0zM581.84 77.7 a7.5 7.5 0 1 0 15 0 a7.5 7.5 0 1 0 -15 0zM516.89 40.2 a7.5 7.5 0 1 0 15 0 a7.5 7.5 0 1 0 -15 0zM516.89 -34.8 a7.5 7.5 0 1 0 15 0 a7.5 7.5 0 1 0 -15 0zM711.75 77.7 a7.5 7.5 0 1 0 15 0 a7.5 7.5 0 1 0 -15 0zM711.75 152.7 a7.5 7.5 0 1 0 15 0 a7.5 7.5 0 1 0 -15 0zM646.79 190.2 a7.5 7.5 0 1 0 15 0 a7.5 7.5 0 1 0 -15 0zM581.84 152.7 a7.5 7.5 0 1 0 15 0 a7.5 7.5 0 1 0 -15 0zM646.79 490.2 a7.5 7.5 0 1 0 15 0 a7.5 7.5 0 1 0 -15 0zM711.75 527.7 a7.5 7.5 0 1 0 15 0 a7.5 7.5 0 1 0 -15 0zM711.75 602.7 a7.5 7.5 0 1 0 15 0 a7.5 7.5 0 1 0 -15 0zM646.79 640.2 a7.5 7.5 0 1 0 15 0 a7.5 7.5 0 1 0 -15 0zM581.84 602.7 a7.5 7.5 0 1 0 15 0 a7.5 7.5 0 1 0 -15 0zM581.84 527.7 a7.5 7.5 0 1 0 15 0 a7.5 7.5 0 1 0 -15 0zM711.75 -72.3 a7.5 7.5 0 1 0 15 0 a7.5 7.5 0 1 0 -15 0zM776.7 -34.8 a7.5 7.5 0 1 0 15 0 a7.5 7.5 0 1 0 -15 0zM776.7 40.2 a7.5 7.5 0 1 0 15 0 a7.5 7.5 0 1 0 -15 0zM776.7 265.2 a7.5 7.5 0 1 0 15 0 a7.5 7.5 0 1 0 -15 0zM841.66 302.7 a7.5 7.5 0 1 0 15 0 a7.5 7.5 0 1 0 -15 0zM841.66 377.7 a7.5 7.5 0 1 0 15 0 a7.5 7.5 0 1 0 -15 0zM776.7 415.2 a7.5 7.5 0 1 0 15 0 a7.5 7.5 0 1 0 -15 0zM711.75 377.7 a7.5 7.5 0 1 0 15 0 a7.5 7.5 0 1 0 -15 0zM711.75 302.7 a7.5 7.5 0 1 0 15 0 a7.5 7.5 0 1 0 -15 0zM776.7 490.2 a7.5 7.5 0 1 0 15 0 a7.5 7.5 0 1 0 -15 0zM646.79 415.2 a7.5 7.5 0 1 0 15 0 a7.5 7.5 0 1 0 -15 0zM841.65 -72.3 a7.5 7.5 0 1 0 15 0 a7.5 7.5 0 1 0 -15 0zM906.61 -34.8 a7.5 7.5 0 1 0 15 0 a7.5 7.5 0 1 0 -15 0zM906.61 40.2 a7.5 7.5 0 1 0 15 0 a7.5 7.5 0 1 0 -15 0zM841.65 77.7 a7.5 7.5 0 1 0 15 0 a7.5 7.5 0 1 0 -15 0zM841.65 152.7 a7.5 7.5 0 1 0 15 0 a7.5 7.5 0 1 0 -15 0zM906.61 190.2 a7.5 7.5 0 1 0 15 0 a7.5 7.5 0 1 0 -15 0zM906.61 265.2 a7.5 7.5 0 1 0 15 0 a7.5 7.5 0 1 0 -15 0zM841.65 302.7 a7.5 7.5 0 1 0 15 0 a7.5 7.5 0 1 0 -15 0zM776.7 190.2 a7.5 7.5 0 1 0 15 0 a7.5 7.5 0 1 0 -15 0zM906.61 490.2 a7.5 7.5 0 1 0 15 0 a7.5 7.5 0 1 0 -15 0zM971.56 527.7 a7.5 7.5 0 1 0 15 0 a7.5 7.5 0 1 0 -15 0zM971.56 602.7 a7.5 7.5 0 1 0 15 0 a7.5 7.5 0 1 0 -15 0zM906.61 640.2 a7.5 7.5 0 1 0 15 0 a7.5 7.5 0 1 0 -15 0zM841.65 602.7 a7.5 7.5 0 1 0 15 0 a7.5 7.5 0 1 0 -15 0zM841.65 527.7 a7.5 7.5 0 1 0 15 0 a7.5 7.5 0 1 0 -15 0zM971.56 -72.3 a7.5 7.5 0 1 0 15 0 a7.5 7.5 0 1 0 -15 0zM1036.52 -34.8 a7.5 7.5 0 1 0 15 0 a7.5 7.5 0 1 0 -15 0zM1036.52 40.2 a7.5 7.5 0 1 0 15 0 a7.5 7.5 0 1 0 -15 0zM971.56 77.7 a7.5 7.5 0 1 0 15 0 a7.5 7.5 0 1 0 -15 0zM1101.47 77.7 a7.5 7.5 0 1 0 15 0 a7.5 7.5 0 1 0 -15 0zM1101.47 152.7 a7.5 7.5 0 1 0 15 0 a7.5 7.5 0 1 0 -15 0zM1036.52 190.2 a7.5 7.5 0 1 0 15 0 a7.5 7.5 0 1 0 -15 0zM971.56 152.7 a7.5 7.5 0 1 0 15 0 a7.5 7.5 0 1 0 -15 0zM1036.52 265.2 a7.5 7.5 0 1 0 15 0 a7.5 7.5 0 1 0 -15 0zM1101.47 302.7 a7.5 7.5 0 1 0 15 0 a7.5 7.5 0 1 0 -15 0zM1101.47 377.7 a7.5 7.5 0 1 0 15 0 a7.5 7.5 0 1 0 -15 0zM1036.52 415.2 a7.5 7.5 0 1 0 15 0 a7.5 7.5 0 1 0 -15 0zM971.56 377.7 a7.5 7.5 0 1 0 15 0 a7.5 7.5 0 1 0 -15 0zM971.56 302.7 a7.5 7.5 0 1 0 15 0 a7.5 7.5 0 1 0 -15 0zM1036.52 490.2 a7.5 7.5 0 1 0 15 0 a7.5 7.5 0 1 0 -15 0zM906.61 415.2 a7.5 7.5 0 1 0 15 0 a7.5 7.5 0 1 0 -15 0zM1101.47 527.7 a7.5 7.5 0 1 0 15 0 a7.5 7.5 0 1 0 -15 0zM1101.47 602.7 a7.5 7.5 0 1 0 15 0 a7.5 7.5 0 1 0 -15 0zM1036.52 640.2 a7.5 7.5 0 1 0 15 0 a7.5 7.5 0 1 0 -15 0zM1166.42 415.2 a7.5 7.5 0 1 0 15 0 a7.5 7.5 0 1 0 -15 0zM1166.42 490.2 a7.5 7.5 0 1 0 15 0 a7.5 7.5 0 1 0 -15 0zM1231.38 -72.3 a7.5 7.5 0 1 0 15 0 a7.5 7.5 0 1 0 -15 0zM1296.33 -34.8 a7.5 7.5 0 1 0 15 0 a7.5 7.5 0 1 0 -15 0zM1296.33 40.2 a7.5 7.5 0 1 0 15 0 a7.5 7.5 0 1 0 -15 0zM1231.38 77.7 a7.5 7.5 0 1 0 15 0 a7.5 7.5 0 1 0 -15 0zM1166.42 40.2 a7.5 7.5 0 1 0 15 0 a7.5 7.5 0 1 0 -15 0zM1166.42 -34.8 a7.5 7.5 0 1 0 15 0 a7.5 7.5 0 1 0 -15 0zM1361.28 77.7 a7.5 7.5 0 1 0 15 0 a7.5 7.5 0 1 0 -15 0zM1361.28 152.7 a7.5 7.5 0 1 0 15 0 a7.5 7.5 0 1 0 -15 0zM1296.33 190.2 a7.5 7.5 0 1 0 15 0 a7.5 7.5 0 1 0 -15 0zM1231.38 152.7 a7.5 7.5 0 1 0 15 0 a7.5 7.5 0 1 0 -15 0zM1296.33 265.2 a7.5 7.5 0 1 0 15 0 a7.5 7.5 0 1 0 -15 0zM1231.38 302.7 a7.5 7.5 0 1 0 15 0 a7.5 7.5 0 1 0 -15 0zM1166.42 265.2 a7.5 7.5 0 1 0 15 0 a7.5 7.5 0 1 0 -15 0zM1166.42 190.2 a7.5 7.5 0 1 0 15 0 a7.5 7.5 0 1 0 -15 0zM1231.38 377.7 a7.5 7.5 0 1 0 15 0 a7.5 7.5 0 1 0 -15 0zM1296.33 415.2 a7.5 7.5 0 1 0 15 0 a7.5 7.5 0 1 0 -15 0zM1296.33 490.2 a7.5 7.5 0 1 0 15 0 a7.5 7.5 0 1 0 -15 0zM1231.38 527.7 a7.5 7.5 0 1 0 15 0 a7.5 7.5 0 1 0 -15 0zM1361.28 527.7 a7.5 7.5 0 1 0 15 0 a7.5 7.5 0 1 0 -15 0zM1361.28 602.7 a7.5 7.5 0 1 0 15 0 a7.5 7.5 0 1 0 -15 0zM1296.33 640.2 a7.5 7.5 0 1 0 15 0 a7.5 7.5 0 1 0 -15 0zM1231.38 602.7 a7.5 7.5 0 1 0 15 0 a7.5 7.5 0 1 0 -15 0zM1361.29 -72.3 a7.5 7.5 0 1 0 15 0 a7.5 7.5 0 1 0 -15 0zM1426.24 -34.8 a7.5 7.5 0 1 0 15 0 a7.5 7.5 0 1 0 -15 0zM1426.24 40.2 a7.5 7.5 0 1 0 15 0 a7.5 7.5 0 1 0 -15 0zM1361.29 77.7 a7.5 7.5 0 1 0 15 0 a7.5 7.5 0 1 0 -15 0zM1361.29 152.7 a7.5 7.5 0 1 0 15 0 a7.5 7.5 0 1 0 -15 0zM1426.24 190.2 a7.5 7.5 0 1 0 15 0 a7.5 7.5 0 1 0 -15 0zM1426.24 265.2 a7.5 7.5 0 1 0 15 0 a7.5 7.5 0 1 0 -15 0zM1361.29 302.7 a7.5 7.5 0 1 0 15 0 a7.5 7.5 0 1 0 -15 0zM1361.29 377.7 a7.5 7.5 0 1 0 15 0 a7.5 7.5 0 1 0 -15 0zM1426.24 415.2 a7.5 7.5 0 1 0 15 0 a7.5 7.5 0 1 0 -15 0zM1426.24 490.2 a7.5 7.5 0 1 0 15 0 a7.5 7.5 0 1 0 -15 0zM1361.29 527.7 a7.5 7.5 0 1 0 15 0 a7.5 7.5 0 1 0 -15 0zM1491.19 527.7 a7.5 7.5 0 1 0 15 0 a7.5 7.5 0 1 0 -15 0zM1491.19 602.7 a7.5 7.5 0 1 0 15 0 a7.5 7.5 0 1 0 -15 0zM1426.24 640.2 a7.5 7.5 0 1 0 15 0 a7.5 7.5 0 1 0 -15 0zM1361.29 602.7 a7.5 7.5 0 1 0 15 0 a7.5 7.5 0 1 0 -15 0zM1491.19 -72.3 a7.5 7.5 0 1 0 15 0 a7.5 7.5 0 1 0 -15 0zM1556.15 -34.8 a7.5 7.5 0 1 0 15 0 a7.5 7.5 0 1 0 -15 0zM1556.15 40.2 a7.5 7.5 0 1 0 15 0 a7.5 7.5 0 1 0 -15 0zM1491.19 77.7 a7.5 7.5 0 1 0 15 0 a7.5 7.5 0 1 0 -15 0zM1621.1 77.7 a7.5 7.5 0 1 0 15 0 a7.5 7.5 0 1 0 -15 0zM1621.1 152.7 a7.5 7.5 0 1 0 15 0 a7.5 7.5 0 1 0 -15 0zM1556.15 190.2 a7.5 7.5 0 1 0 15 0 a7.5 7.5 0 1 0 -15 0zM1491.19 152.7 a7.5 7.5 0 1 0 15 0 a7.5 7.5 0 1 0 -15 0zM1556.15 265.2 a7.5 7.5 0 1 0 15 0 a7.5 7.5 0 1 0 -15 0zM1621.1 302.7 a7.5 7.5 0 1 0 15 0 a7.5 7.5 0 1 0 -15 0zM1621.1 377.7 a7.5 7.5 0 1 0 15 0 a7.5 7.5 0 1 0 -15 0zM1556.15 415.2 a7.5 7.5 0 1 0 15 0 a7.5 7.5 0 1 0 -15 0zM1491.19 377.7 a7.5 7.5 0 1 0 15 0 a7.5 7.5 0 1 0 -15 0zM1491.19 302.7 a7.5 7.5 0 1 0 15 0 a7.5 7.5 0 1 0 -15 0z" fill="#FFFFFF"></path>
        <path d="M70.32 214.13L113.63 239.13L113.63 289.13L70.32 314.13L27.02 289.13L27.02 239.13zM27.02 289.13L70.32 314.13L70.32 364.13L27.02 389.13L-16.28 364.13L-16.28 314.13zM156.93 64.13L200.23 89.13L200.23 139.13L156.93 164.13L113.63 139.13L113.63 89.13zM113.63 289.13L156.93 314.13L156.93 364.13L113.63 389.13L70.32 364.13L70.32 314.13zM200.23 -10.87L243.53 14.13L243.53 64.13L200.23 89.13L156.93 64.13L156.93 14.13zM200.23 289.13L243.53 314.13L243.53 364.13L200.23 389.13L156.93 364.13L156.93 314.13zM243.53 514.13L286.83 539.13L286.83 589.13L243.53 614.13L200.23 589.13L200.23 539.13zM286.83 439.13L330.14 464.13L330.14 514.13L286.83 539.13L243.53 514.13L243.53 464.13zM373.44 439.13L416.74 464.13L416.74 514.13L373.44 539.13L330.14 514.13L330.14 464.13zM460.05 139.13L503.35 164.13L503.35 214.13L460.05 239.13L416.74 214.13L416.74 164.13zM460.05 289.13L503.35 314.13L503.35 364.13L460.05 389.13L416.74 364.13L416.74 314.13zM503.35 364.13L546.65 389.13L546.65 439.13L503.35 464.13L460.05 439.13L460.05 389.13zM546.65 439.13L589.95 464.13L589.95 514.13L546.65 539.13L503.35 514.13L503.35 464.13zM633.25 289.13L676.56 314.13L676.56 364.13L633.25 389.13L589.95 364.13L589.95 314.13zM719.86 139.13L763.16 164.13L763.16 214.13L719.86 239.13L676.56 214.13L676.56 164.13zM806.47 139.13L849.77 164.13L849.77 214.13L806.47 239.13L763.16 214.13L763.16 164.13zM806.47 439.13L849.77 464.13L849.77 514.13L806.47 539.13L763.16 514.13L763.16 464.13zM893.07 289.13L936.37 314.13L936.37 364.13L893.07 389.13L849.77 364.13L849.77 314.13zM1022.98 214.13L1066.28 239.13L1066.28 289.13L1022.98 314.13L979.68 289.13L979.68 239.13zM1066.28 439.13L1109.58 464.13L1109.58 514.13L1066.28 539.13L1022.98 514.13L1022.98 464.13zM1152.88 -10.87L1196.19 14.13L1196.19 64.13L1152.88 89.13L1109.58 64.13L1109.58 14.13zM1152.88 139.13L1196.19 164.13L1196.19 214.13L1152.88 239.13L1109.58 214.13L1109.58 164.13zM1282.79 64.13L1326.1 89.13L1326.1 139.13L1282.79 164.13L1239.49 139.13L1239.49 89.13zM1239.49 139.13L1282.79 164.13L1282.79 214.13L1239.49 239.13L1196.19 214.13L1196.19 164.13zM1282.79 514.13L1326.1 539.13L1326.1 589.13L1282.79 614.13L1239.49 589.13L1239.49 539.13zM1456 214.13L1499.31 239.13L1499.31 289.13L1456 314.13L1412.7 289.13L1412.7 239.13z" stroke="#FFDD00" stroke-width="2"></path>
    </g>
    <defs>
        <mask id="SvgjsMask1000">
            <rect width="1440" height="560" fill="#ffffff"></rect>
        </mask>
    </defs>
</svg>